<svg xmlns="http://www.w3.org/2000/svg" version="1.1" viewBox="0 0 2000 2000" width="500" height="500"><script xmlns="" id="eppiocemhmnlbhjplcgkofciiegomcon"/><script xmlns=""/><script xmlns=""/>
<path transform="translate(998,374)" d="m0 0 4 2 14 24 11 20 9 15 14 25 14 24 20 34 16 28 15 26 11 19 14 26 14 24 15 26 28 49 10 17 16 28 28 48 28 49 10 17 15 26 14 25 12 20 10 18 9 15 16 28 10 17 13 23 28 48 16 28 17 29 12 21 14 24 9 16 15 25 8 14 10 16 16 28 10 17 24 42 10 17 12 21 15 26 10 17 21 36 2 5v3l-2 1h-833l-1-3 14-26 17-28 15-27 8-14 12-20 14-24 12-20 6-11 10-17 15-27 6-8 2-1h212l102-1-16-29-14-23-11-19-15-25-10-18-14-24-10-18-12-20-10-18-9-15-16-28-14-24-14-25-24-42-13-22-10-18-8-13-12-21-14-23-3-1-2 6-10 17-9 15-14 25-13 23-9 15-14 25-10 17-15 26-10 17-28 49-10 17-13 23-8 14-17 29-14 24-14 25-13 22-28 49-15 25-7 12-6 11-12 21-13 22-14 24-20 35-10 17-9 16-13 22-6 8-5 2h-254l-1-2 6-11 15-27 9-15 16-28 9-15 13-23 12-21 13-22 13-23 9-15 6-11 16-27 8-15 12-20 10-18 8-13 14-25 9-15 13-23 9-15 9-16 14-24 20-35 17-29 10-18 15-25 10-18 10-17 12-21 9-15 13-23 8-14 17-29 14-24 10-18 13-22 14-24 14-25 16-27 10-18 14-24 14-25 7-11 6-12 12-21 15-26 13-22 14-24 26-44 16-29 14-25z" fill="white"/>
</svg>